<?xml version="1.0" encoding="iso-8859-1"?>
<!-- Generator: Adobe Illustrator 19.0.0, SVG Export Plug-In . SVG Version: 6.00 Build 0)  -->
<svg version="1.1" id="Layer_1" xmlns="http://www.w3.org/2000/svg" xmlns:xlink="http://www.w3.org/1999/xlink" x="0px" y="0px"
	 viewBox="0 0 512.001 512.001" style="enable-background:new 0 0 512.001 512.001;" xml:space="preserve">
<rect x="52.416" y="8.724" style="fill:#E6E6E6;" width="407.157" height="494.551"/>
<circle style="fill:#FFFFFF;" cx="255.995" cy="302.349" r="155.688"/>
<path style="fill:#C0EFFF;" d="M316.044,302.346c0-26.535,9.39-50.875,25.025-69.885c-20.192-24.549-50.8-40.206-85.068-40.206
	c-60.801,0-110.091,49.29-110.091,110.091s49.29,110.091,110.091,110.091c34.267,0,64.876-15.657,85.068-40.206
	C325.432,353.221,316.044,328.88,316.044,302.346z"/>
<circle style="fill:#E6FAFF;" cx="255.995" cy="302.349" r="69.887"/>
<path d="M459.582,171.769c-4.819,0-8.724,3.906-8.724,8.724v306.258c0,4.302-3.5,7.802-7.802,7.802H137.466
	c-4.818,0-8.724,3.906-8.724,8.724s3.906,8.724,8.724,8.724h305.589c13.924,0,25.25-11.328,25.25-25.25V180.493
	C468.306,175.675,464.4,171.769,459.582,171.769z"/>
<path d="M443.055,0H68.946c-13.923,0-25.25,11.328-25.25,25.25v461.5c0,13.923,11.326,25.25,25.25,25.25h39.44
	c4.818,0,8.724-3.906,8.724-8.724s-3.906-8.724-8.724-8.724h-39.44c-4.302,0-7.802-3.5-7.802-7.802V107.425h389.712v45.151
	c0,4.818,3.905,8.724,8.724,8.724s8.724-3.906,8.724-8.724V25.25C468.306,11.328,456.978,0,443.055,0z M143.28,17.449v16.76h-42.136
	v-16.76H143.28z M61.144,25.25c0-4.302,3.5-7.802,7.802-7.802h14.75v25.484c0,4.818,3.906,8.724,8.724,8.724h59.585
	c4.818,0,8.724-3.906,8.724-8.724V17.449h16.246v72.528H61.144V25.25z M335.026,89.977V37.421c0-4.818-3.905-8.724-8.724-8.724
	s-8.724,3.906-8.724,8.724v52.555H194.423V17.449h248.632c4.302,0,7.802,3.5,7.802,7.802v64.726H335.026z"/>
<path d="M368.669,410.15c3.661,3.135,9.169,2.703,12.3-0.956c25.438-29.725,39.448-67.671,39.448-106.848
	c0-90.661-73.758-164.417-164.417-164.417S91.584,211.686,91.584,302.346s73.758,164.417,164.417,164.417
	c36.409,0,70.908-11.658,99.762-33.714c3.828-2.927,4.559-8.402,1.633-12.229c-2.926-3.828-8.401-4.56-12.23-1.633
	c-25.786,19.71-56.618,30.128-89.166,30.128c-81.038,0-146.968-65.93-146.968-146.968s65.93-146.968,146.968-146.968
	c81.039,0,146.968,65.93,146.968,146.968c0,35.019-12.521,68.936-35.257,95.503C364.58,401.511,365.008,407.018,368.669,410.15z"/>
<path d="M347.805,226.919c-22.679-27.573-56.14-43.389-91.804-43.389c-65.515,0-118.816,53.301-118.816,118.816
	c0,20.552,5.333,40.81,15.425,58.583c2.379,4.19,7.705,5.658,11.894,3.279c4.19-2.379,5.658-7.704,3.279-11.894
	c-8.602-15.152-13.149-32.431-13.149-49.969c0-55.894,45.473-101.367,101.367-101.367c28.122,0,54.64,11.527,73.775,31.85
	c-14.528,20.143-22.456,44.551-22.456,69.518s7.927,49.375,22.456,69.518c-19.135,20.324-45.653,31.85-73.775,31.85
	c-27.722,0-53.604-10.979-72.88-30.913c-3.349-3.464-8.872-3.557-12.336-0.207c-3.464,3.349-3.557,8.872-0.207,12.336
	c22.592,23.365,52.93,36.233,85.424,36.233c35.665,0,69.125-15.814,91.804-43.389c2.649-3.22,2.649-7.863,0.001-11.083
	c-14.856-18.063-23.038-40.913-23.038-64.343c0-23.43,8.181-46.281,23.038-64.343C350.453,234.783,350.453,230.139,347.805,226.919z
	"/>
<path d="M427.679,29.668h-69.791c-4.819,0-8.724,3.906-8.724,8.724s3.905,8.724,8.724,8.724h69.791c4.819,0,8.724-3.906,8.724-8.724
	S432.498,29.668,427.679,29.668z"/>
<path d="M427.679,60.308h-69.791c-4.819,0-8.724,3.906-8.724,8.724s3.905,8.724,8.724,8.724h69.791c4.819,0,8.724-3.906,8.724-8.724
	S432.498,60.308,427.679,60.308z"/>
<g>
</g>
<g>
</g>
<g>
</g>
<g>
</g>
<g>
</g>
<g>
</g>
<g>
</g>
<g>
</g>
<g>
</g>
<g>
</g>
<g>
</g>
<g>
</g>
<g>
</g>
<g>
</g>
<g>
</g>
</svg>
